# xmcd
#
# Track frame offsets: 
#        150
#        22172
#        42560
#        64432
#        81457
#        99990
#        121047
#        140010
#        157472
#        177037
#
# Disc length: 2617 seconds
#
# Revision: 0
# Processed by: cddbd v1.5.2PL0 Copyright (c) Steve Scherf et al.
# Submitted via: ExactAudioCopy v1.0b1
#
DISCID=920a370a
DTITLE=文章 - 原諒我的心
DYEAR=1989
DGENRE=
TTITLE0=一切由不得我
TTITLE1=原諒我的心
TTITLE2=天使心
TTITLE3=我的心不會改變
TTITLE4=笑我怪我
TTITLE5=日積月累的等待
TTITLE6=我是風
TTITLE7=無非是為了愛你
TTITLE8=雨夜的街頭
TTITLE9=一個人的時候
EXTD=
EXTT0=
EXTT1=
EXTT2=
EXTT3=
EXTT4=
EXTT5=
EXTT6=
EXTT7=
EXTT8=
EXTT9=
PLAYORDER=
